<svg xmlns="http://www.w3.org/2000/svg" width="250" height="250" viewBox="0 0 250 250">
<!-- SVG created with Arrow, by QuiverAI (https://quiver.ai) -->
  <path d="m194.3 195.6v-34.73c-4.51 2.65-6.65 3.91-10.82 5.47v29.26h-90.98v18.62c0 8.8-5.98 15.5-12.78 15.21-7.9-0.34-14.02-7.56-14.02-19.35v-91.34c-4.62 3-9.62 7.2-11.28 9.85v81.15c0 10.41 3.07 17.36 7.81 23.43 4.9 5.87 11.34 8.7 18.03 8.7h126c14.95 0 27.1-13.78 27.1-29.18v-17.09h-39.02zm26.77 17.33c0 9.94-7.15 16.55-16.25 16.55h-104.7c3.61-5.96 4.2-9.66 4.2-22.71h116.7v6.16z" fill="#C7AA75"/>
  <path d="m54.41 53.54v17.73c3.73-2.36 7.24-3.81 11.28-4.86v-29.7c0-6.27-1.28-12.68-3.83-18.22h103.8c10.68 0 17.88 9.64 17.88 21.33v74.09c4.99-3 8.72-5.65 10.48-8.79v-64.34c0-18-12.25-32.92-28.06-32.92h-126c-13.8 0-24.1 13.45-24.1 28.37v17.31h38.6zm-27.32-15.61c0-10.27 4.03-19.44 14.22-19.44 7.9 0 13.1 7.22 13.1 14.95v9.32h-27.32v-4.83z" fill="#C7AA75"/>
  <path d="m143.8 166.3c44.49-2.8 75.9-27.54 87.98-58.17 8.29-25.67-1.9-49.4-29.52-62.19 9.24 12.19 12.82 22.39 11.79 34.97-3.12 26.09-28.09 47.94-70.47 50.83l3.21-22.31-56.97 39.64 57.11 39.02-3.13-21.79z" fill="#C7AA75"/>
  <path d="m105.3 100.1-3.02 22.2 57.37-39.63-57.64-39.32 3.32 22.86c-39.74 2.41-65.9 19.2-81.96 45.79-13.02 22.51-11.09 53.83 23.17 75.97l0.32-0.29c-10.29-12.48-16.84-30.26-9.44-48.78 9.49-22.79 34.98-37.19 67.88-38.8z" fill="#C7AA75"/>
</svg>
